<?xml version="1.0" encoding="UTF-8"?>
<svg id="uuid-b31ae41b-8b82-4856-b3f8-e595e3d85e2d" data-name="Capa 1" xmlns="http://www.w3.org/2000/svg" viewBox="0 0 4516.3 1080">
  <defs>
    <style>
      .uuid-5aa4f1b7-5aa0-4d82-9cc6-e6f88125032f {
        fill: #f4f4f4;
      }
    </style>
  </defs>
  <path class="uuid-5aa4f1b7-5aa0-4d82-9cc6-e6f88125032f" d="M216.8,942.53V290.03H0v-77.13h527.42v77.13h-216.8v652.5h-93.81Z"/>
  <path class="uuid-5aa4f1b7-5aa0-4d82-9cc6-e6f88125032f" d="M721.28,955.03c-50.73,0-96.25-11.3-136.54-33.88-40.31-22.57-71.92-54.2-94.85-94.85-22.93-40.65-34.4-88.08-34.4-142.28s11.63-102.49,34.92-142.8c23.27-40.29,55.24-71.74,95.89-94.33,40.65-22.57,85.99-33.88,136.02-33.88s97.28,11.3,137.59,33.88c40.29,22.59,71.92,54.04,94.85,94.33,22.93,40.31,34.4,87.91,34.4,142.8s-11.64,101.63-34.92,142.28c-23.29,40.65-55.08,72.28-95.37,94.85-40.31,22.57-86.17,33.88-137.59,33.88ZM721.28,874.78c31.27,0,59.93-7.12,85.99-21.37,26.06-14.23,46.9-35.44,62.54-63.58,15.64-28.14,23.45-63.4,23.45-105.79s-7.82-77.65-23.45-105.8c-15.63-28.14-36.32-49.33-62.02-63.58-25.72-14.23-53.86-21.37-84.43-21.37s-59.07,7.13-85.47,21.37c-26.42,14.25-47.43,35.44-63.06,63.58-15.64,28.14-23.45,63.42-23.45,105.8s7.82,76.79,23.45,105.27c15.63,28.5,36.3,49.87,62.02,64.1,25.7,14.25,53.84,21.37,84.43,21.37Z"/>
  <path class="uuid-5aa4f1b7-5aa0-4d82-9cc6-e6f88125032f" d="M1058.98,942.53V425.53h93.81v85.47c16.68-30.57,40.29-54.54,70.88-71.92,30.57-17.36,65.31-26.06,104.23-26.06,61.14,0,109.79,18.76,145.93,56.29,36.12,37.52,54.2,95.21,54.2,173.03v300.19h-93.81v-290.81c0-52.8-10.95-92.41-32.83-118.83-21.89-26.4-54.38-39.61-97.46-39.61s-79.92,15.81-108.4,47.43c-28.5,31.63-42.73,76.27-42.73,133.94v267.88h-93.81Z"/>
  <path class="uuid-5aa4f1b7-5aa0-4d82-9cc6-e6f88125032f" d="M1617.65,326.51v-114.66h113.61v114.66h-113.61ZM1628.07,942.53V425.53h93.81v516.99h-93.81Z"/>
  <g>
    <path class="uuid-5aa4f1b7-5aa0-4d82-9cc6-e6f88125032f" d="M1937.65,278.55c32.31,1.04,76.09,3.13,114.66,3.13s63.58-1.04,79.22-3.12c2.08,62.54,39.61,376.28,52.12,502.41,112.57-177.2,292.9-456.54,317.91-502.41,20.85,2.08,52.12,3.13,77.13,3.13,35.44,0,78.18-3.13,116.74-3.12l-8.34,28.14c-23.97,2.09-43.78,5.21-62.54,7.3-14.59,2.08-23.97,10.42-28.14,27.1-35.44,132.38-101.11,411.72-121.95,532.63-5.21,27.1,4.17,31.27,31.27,34.4l53.16,6.25-10.42,28.14c-35.44-3.13-90.68-3.13-140.72-3.13s-97.98,1.04-134.46,3.13l9.38-28.14c68.79-7.3,77.13-13.55,86.51-44.82,28.14-95.89,79.22-298.11,146.97-551.39h-1.04c-165.73,259.54-316.87,512.83-380.45,622.27-14.59,1.04-30.23,5.21-43.78,7.3-5.21-119.87-31.27-424.23-43.78-607.68h-1.04c-71.92,229.31-138.63,435.7-158.43,517-10.42,42.73-1.04,51.07,84.43,57.33l-9.38,28.14c-33.35,0-74.01-3.13-118.83-3.13-40.65,0-103.19,3.13-121.95,3.13l9.38-28.14c22.93-3.13,41.69-5.21,55.24-8.34,18.76-3.13,33.35-14.59,44.82-41.69,38.57-94.85,119.87-333.55,182.41-527.42,4.17-16.68,0-20.85-16.68-22.93l-71.92-7.3,12.51-28.14Z"/>
    <path class="uuid-5aa4f1b7-5aa0-4d82-9cc6-e6f88125032f" d="M3101.92,824.74c-26.06,55.24-81.3,129.25-160.52,129.25-57.33,0-58.37-54.2-43.78-105.28,2.08-9.38,6.25-23.97,9.38-34.4h-2.08c-42.74,64.63-118.83,139.67-210.55,139.67-59.41,0-85.47-45.86-85.47-107.36,0-114.66,71.92-262.67,174.07-329.38,40.65-27.1,78.18-37.52,116.74-37.52,45.86,0,78.18,17.72,89.64,47.95l10.42-35.44h85.47c-37.52,106.32-91.73,286.64-109.45,373.16-4.17,19.8-4.17,37.52,10.42,37.52,29.18,0,69.84-45.86,95.89-99.02l19.8,20.85ZM2702.71,843.5c0,29.19,10.42,59.41,39.61,59.41,46.91,0,101.11-42.74,153.22-130.29,26.06-43.78,71.92-152.18,71.92-192.83,0-46.9-27.1-65.67-58.37-65.67-34.4,0-66.71,14.59-102.15,55.24-60.45,71.92-104.23,186.58-104.23,273.09v1.04Z"/>
    <path class="uuid-5aa4f1b7-5aa0-4d82-9cc6-e6f88125032f" d="M3157.14,505.78c51.07-4.17,116.74-12.51,160.52-26.06-6.25,41.69-28.14,125.08-40.65,175.11h4.17c58.37-117.78,110.49-175.11,170.94-175.11,38.57,0,52.12,32.31,52.12,54.2,0,45.86-31.27,65.67-53.16,65.67-15.64,0-22.93-7.3-27.1-20.85-4.17-14.59-9.38-22.93-22.93-22.93-38.57,0-93.81,96.94-128.21,177.2-22.93,56.29-46.9,124.04-70.88,207.43-36.48,2.08-67.75,5.21-92.77,8.34,44.82-126.12,102.15-322.08,110.49-396.09,1.04-13.55-4.17-18.76-13.55-18.76h-59.41l10.42-28.14Z"/>
    <path class="uuid-5aa4f1b7-5aa0-4d82-9cc6-e6f88125032f" d="M3740.83,830.99c-40.65,81.3-116.74,123-177.2,123-81.3,0-77.13-54.2-60.45-111.53,28.14-95.9,70.88-235.57,92.77-307.49l-74.01-7.3,14.59-30.23h70.88c15.64-48.99,28.14-93.81,37.52-126.12,36.48-5.21,74.01-12.51,100.06-22.93-9.38,21.89-33.35,92.77-51.07,149.05h114.66l-15.63,30.23-110.49,7.3c-19.8,59.41-81.3,262.67-99.02,337.72-5.21,22.93-3.13,38.57,19.8,38.57,46.9,0,101.11-62.54,121.95-114.66l15.63,34.4Z"/>
    <path class="uuid-5aa4f1b7-5aa0-4d82-9cc6-e6f88125032f" d="M3815.87,504.74c53.16-5.21,127.16-11.47,174.07-25.02l3.13,4.17c-31.27,71.92-104.23,301.24-126.12,388.79-4.17,18.76-5.21,31.27,7.3,31.27,31.27,0,80.26-52.12,103.19-100.06l20.85,21.89c-44.82,83.39-107.36,128.21-169.9,128.21s-59.41-50.03-38.57-116.74c25.02-80.26,68.8-207.43,90.68-286.64,4.17-13.55,2.08-17.72-10.42-17.72s-41.69,0-64.63,1.04l10.42-29.19ZM3980.55,279.6c29.18,0,43.78,19.8,42.73,51.07-2.08,37.52-29.18,60.45-59.41,60.45-25.02,0-44.82-17.72-43.78-50.03,2.08-39.61,33.35-61.5,59.41-61.5h1.04Z"/>
    <path class="uuid-5aa4f1b7-5aa0-4d82-9cc6-e6f88125032f" d="M4516.3,825.78c-42.73,84.43-109.44,129.25-168.86,129.25-62.54,0-60.45-57.33-35.44-127.16,28.14-76.09,62.54-169.9,86.51-237.65,11.47-31.27,8.34-60.46-25.02-60.46-91.73,0-187.62,160.52-228.27,267.88-14.59,38.57-30.23,78.18-48.99,143.84-33.35,1.04-65.67,5.21-91.73,8.34,48.99-129.25,106.32-325.21,120.91-399.21,3.13-13.55,1.04-18.76-9.38-18.76l-63.58,1.04,9.38-28.14c54.2-4.17,114.66-11.47,166.77-25.02-15.64,56.29-34.4,124.04-51.07,179.28,58.37-87.56,138.63-179.28,241.82-179.28,22.93,0,40.65,7.3,52.12,16.68,29.19,26.06,18.76,84.43,4.17,123-27.1,76.09-65.67,175.11-89.64,252.24-6.25,18.76-3.13,31.27,8.34,31.27,29.19,0,75.05-45.86,102.15-97.98l19.8,20.85Z"/>
  </g>
</svg>